Coordinates
version=1
nRows=6
nColumns=36
inDegrees=yes

Units are S.I. units (second, meters, Newtons, ...)
If the header above contains a line with 'inDegrees', this indicates whether rotational values are in degrees (yes) or radians (no).

endheader
time	pelvis_tilt	pelvis_list	pelvis_rotation	pelvis_tx	pelvis_ty	pelvis_tz	hip_flexion_r	hip_adduction_r	hip_rotation_r	knee_angle_r	knee_angle_r_beta	ankle_angle_r	subtalar_angle_r	mtp_angle_r	hip_flexion_l	hip_adduction_l	hip_rotation_l	knee_angle_l	knee_angle_l_beta	ankle_angle_l	subtalar_angle_l	mtp_angle_l	lumbar_extension	lumbar_bending	lumbar_rotation	arm_flex_r	arm_add_r	arm_rot_r	elbow_flex_r	pro_sup_r	arm_flex_l	arm_add_l	arm_rot_l	elbow_flex_l	pro_sup_l
      3.10000000	     -8.15969559	     -0.45532943	     -6.27185518	      0.52685537	      0.85940865	      0.10290938	     12.43431524	     -4.65837982	     -8.49517500	     11.21321957	      0.19570760	      4.16714658	    -13.43887506	     -7.49999987	     10.80900339	     -9.64732904	    -12.97945066	      9.87984270	      0.17243578	      6.93444424	      2.16477471	     -7.49999987	      1.00564150	     -0.65657459	      3.81312663	     36.36988094	     -3.07418020	     66.00791673	    125.39609931	     83.84541381	     47.45378458	      2.82673724	     70.15294291	    126.83642255	     67.35602520
      3.11666670	     -8.38444717	     -0.29176550	     -6.03369784	      0.52728097	      0.85769650	      0.09746698	     13.79266040	     -5.20010380	     -8.47673464	     12.78618010	      0.22316094	      4.09550787	    -14.23974886	     -7.49999987	     12.29142837	     -9.43500734	    -12.38617841	     11.64643339	      0.20326861	      7.10813202	      1.00631900	     -7.49999987	      0.67847250	     -0.65940108	      3.36962199	     37.09916738	     -3.08901650	     66.58483161	    125.15404775	     83.83577997	     47.81945192	      3.10064187	     69.97038559	    126.21238330	     67.39298914
      3.13333330	     -8.40734436	     -0.14595384	     -5.78100661	      0.52804278	      0.86074956	      0.09677068	     14.77204931	     -5.73787443	     -8.51903275	     14.21398137	      0.24808077	      4.09331941	    -14.76889421	     -7.49999987	     13.51668681	     -9.21553473	    -11.88535308	     13.39939483	      0.23386356	      7.32805825	      0.03673024	     -7.49999987	      0.10829027	     -0.64227613	      2.87776221	     37.92945334	     -2.81202801	     67.44537544	    124.90648178	     83.77453627	     48.07173513	      3.54171593	     69.96441036	    125.74039565	     67.48986333
      3.15000000	     -8.38156802	     -0.12578916	     -5.53659578	      0.52813358	      0.85540580	      0.09668170	     15.63786961	     -6.10215299	     -8.46422640	     15.69458213	      0.27392213	      4.55249493	    -15.24407106	     -7.49999987	     14.92242280	     -9.25866047	    -11.30579484	     15.86849964	      0.27695757	      7.87492493	     -0.84388731	     -7.49999987	     -0.57885592	     -0.42891417	      2.56492106	     38.72558697	     -2.84707001	     67.77870789	    124.74102628	     82.94384676	     48.29402213	      3.91978973	     69.83187753	    125.62173781	     67.96009479
      3.16666670	     -8.31116770	     -0.17611081	     -5.29974798	      0.51647237	      0.85323802	      0.09744388	     16.77175675	     -6.32078017	     -8.18704625	     17.45203274	      0.30459543	      5.31596975	    -15.85487683	     -7.49999987	     16.70723390	     -9.50438023	    -10.78514483	     18.77526950	      0.32769027	      8.68741966	     -1.69190027	     -7.49999987	     -1.79825933	     -0.25114517	      2.41215334	     39.74090683	     -3.18074413	     67.43875105	    124.70072608	     82.97011612	     49.03541006	      4.18018594	     69.78971932	    125.56670525	     67.98813888
      3.18333330	     -8.73160471	     -0.20640934	     -5.08286826	      0.51338839	      0.85149526	      0.09522452	     18.74485105	     -6.63629444	     -8.18021494	     19.67136191	      0.34333003	      6.01966592	    -16.40201064	     -7.49999987	     19.08550229	     -9.73473631	     -9.98497750	     21.78326567	      0.38018971	      9.43725792	     -2.57889555	     -7.49999987	     -2.64405013	      0.01110974	      2.05398464	     40.37683150	     -3.56066231	     67.40097466	    124.41828719	     80.19102126	     49.14036961	      4.14278079	     69.93273946	    125.72168571	     67.04031619
